<?xml version="1.0" encoding="UTF-8" standalone="no"?><!DOCTYPE svg PUBLIC "-//W3C//DTD SVG 1.1//EN" "http://www.w3.org/Graphics/SVG/1.1/DTD/svg11.dtd"><svg width="100%" height="100%" viewBox="0 0 1389 1389" version="1.1" xmlns="http://www.w3.org/2000/svg" xmlns:xlink="http://www.w3.org/1999/xlink" xml:space="preserve" xmlns:serif="http://www.serif.com/" style="fill-rule:evenodd;clip-rule:evenodd;stroke-linejoin:round;stroke-miterlimit:2;"><rect id="Artboard1" x="0" y="0" width="1388.89" height="1388.89" style="fill:none;"/><clipPath id="_clip1"><rect id="Artboard11" serif:id="Artboard1" x="0" y="0" width="1388.89" height="1388.89"/></clipPath><g clip-path="url(#_clip1)"><g><path d="M1388.89,694.444c-0,-383.531 -310.913,-694.444 -694.445,-694.444c-383.531,0 -694.444,310.913 -694.444,694.444c-0,346.618 253.948,633.912 585.938,686.008l-0,-485.27l-176.324,0l-0,-200.738l176.324,0l-0,-152.994c-0,-174.045 103.675,-270.183 262.301,-270.183c75.978,0 155.45,13.564 155.45,13.564l0,170.898l-87.568,0c-86.267,0 -113.17,53.531 -113.17,108.449l0,130.266l192.6,0l-30.789,200.738l-161.811,0l0,485.27c331.99,-52.096 585.938,-339.39 585.938,-686.008Z" style="fill:#1877f2;fill-rule:nonzero;"/><path d="M964.762,895.182l30.789,-200.738l-192.6,0l0,-130.266c0,-54.918 26.903,-108.449 113.17,-108.449l87.568,0l0,-170.898c0,-0 -79.472,-13.564 -155.45,-13.564c-158.626,0 -262.301,96.138 -262.301,270.183l-0,152.994l-176.324,0l-0,200.738l176.324,0l-0,485.27c35.355,5.548 71.592,8.437 108.506,8.437c36.915,-0 73.152,-2.889 108.507,-8.437l0,-485.27l161.811,0Z" style="fill:#fff;fill-rule:nonzero;"/></g></g></svg>