<?xml version="1.0" encoding="UTF-8" standalone="no"?><!DOCTYPE svg PUBLIC "-//W3C//DTD SVG 1.1//EN" "http://www.w3.org/Graphics/SVG/1.1/DTD/svg11.dtd"><svg width="100%" height="100%" viewBox="0 0 1389 1389" version="1.1" xmlns="http://www.w3.org/2000/svg" xmlns:xlink="http://www.w3.org/1999/xlink" xml:space="preserve" xmlns:serif="http://www.serif.com/" style="fill-rule:evenodd;clip-rule:evenodd;stroke-linejoin:round;stroke-miterlimit:2;"><g id="Artboard1"><rect x="0" y="0" width="1388.89" height="1388.89" style="fill:none;"/><clipPath id="_clip1"><rect x="0" y="0" width="1388.89" height="1388.89"/></clipPath><g clip-path="url(#_clip1)"><path d="M694.671,0c-289.924,0 -374.716,0.299 -391.198,1.666c-59.497,4.946 -96.52,14.314 -136.854,34.396c-31.084,15.435 -55.599,33.327 -79.793,58.407c-44.062,45.74 -70.767,102.011 -80.434,168.9c-4.7,32.473 -6.067,39.095 -6.345,204.962c-0.106,55.288 0,128.053 0,225.652c0,289.689 0.321,374.395 1.71,390.845c4.806,57.895 13.886,94.32 33.113,134.163c36.745,76.268 106.924,133.522 189.601,154.885c28.627,7.371 60.245,11.43 100.836,13.352c17.197,0.748 192.485,1.282 367.879,1.282c175.395,0 350.789,-0.213 367.559,-1.068c47,-2.211 74.292,-5.875 104.468,-13.673c82.93,-21.266 152.372,-78.111 189.601,-155.205c18.853,-38.882 28.414,-76.695 32.74,-131.568c0.94,-11.963 1.335,-202.707 1.335,-393.195c-0,-190.52 -0.427,-380.911 -1.367,-392.875c-4.38,-55.758 -13.94,-93.251 -33.402,-132.881c-15.969,-32.44 -33.701,-56.666 -59.444,-81.437c-45.932,-43.881 -102.118,-70.585 -169.082,-80.242c-32.44,-4.689 -38.903,-6.078 -204.897,-6.366l-226.026,-0Z" style="fill:url(#_Radial2);fill-rule:nonzero;"/><path d="M694.671,0c-289.924,0 -374.716,0.299 -391.198,1.666c-59.497,4.946 -96.52,14.314 -136.854,34.396c-31.084,15.435 -55.599,33.327 -79.793,58.407c-44.062,45.74 -70.767,102.011 -80.434,168.9c-4.7,32.473 -6.067,39.095 -6.345,204.962c-0.106,55.288 0,128.053 0,225.652c0,289.689 0.321,374.395 1.71,390.845c4.806,57.895 13.886,94.32 33.113,134.163c36.745,76.268 106.924,133.522 189.601,154.885c28.627,7.371 60.245,11.43 100.836,13.352c17.197,0.748 192.485,1.282 367.879,1.282c175.395,0 350.789,-0.213 367.559,-1.068c47,-2.211 74.292,-5.875 104.468,-13.673c82.93,-21.266 152.372,-78.111 189.601,-155.205c18.853,-38.882 28.414,-76.695 32.74,-131.568c0.94,-11.963 1.335,-202.707 1.335,-393.195c-0,-190.52 -0.427,-380.911 -1.367,-392.875c-4.38,-55.758 -13.94,-93.251 -33.402,-132.881c-15.969,-32.44 -33.701,-56.666 -59.444,-81.437c-45.932,-43.881 -102.118,-70.585 -169.082,-80.242c-32.44,-4.689 -38.903,-6.078 -204.897,-6.366l-226.026,-0Z" style="fill:url(#_Radial3);fill-rule:nonzero;"/><path d="M694.351,181.59c-139.248,-0 -156.723,0.609 -211.414,3.097c-54.583,2.5 -91.841,11.142 -124.442,23.821c-33.722,13.096 -62.328,30.614 -90.827,59.123c-28.52,28.499 -46.038,57.105 -59.177,90.817c-12.711,32.611 -21.363,69.88 -23.82,124.442c-2.436,54.691 -3.076,72.177 -3.076,211.424c-0,139.247 0.619,156.669 3.097,211.36c2.51,54.583 11.152,91.841 23.821,124.442c13.106,33.722 30.624,62.328 59.134,90.827c28.488,28.52 57.094,46.081 90.795,59.177c32.622,12.679 69.89,21.321 124.463,23.82c54.691,2.489 72.156,3.098 211.392,3.098c139.258,-0 156.68,-0.609 211.371,-3.098c54.584,-2.499 91.884,-11.141 124.506,-23.82c33.712,-13.096 62.275,-30.657 90.763,-59.177c28.52,-28.499 46.038,-57.105 59.177,-90.816c12.605,-32.612 21.257,-69.88 23.82,-124.443c2.457,-54.69 3.098,-72.123 3.098,-211.37c0,-139.247 -0.641,-156.723 -3.098,-211.413c-2.563,-54.584 -11.215,-91.842 -23.82,-124.443c-13.139,-33.722 -30.657,-62.328 -59.177,-90.827c-28.52,-28.52 -57.04,-46.038 -90.795,-59.123c-32.686,-12.679 -69.965,-21.321 -124.549,-23.821c-54.691,-2.488 -72.102,-3.097 -211.392,-3.097l0.15,-0Zm-45.996,92.397c13.651,-0.021 28.884,-0 45.996,-0c136.897,-0 153.123,0.491 207.183,2.948c49.991,2.286 77.122,10.639 95.196,17.657c23.927,9.293 40.986,20.402 58.92,38.348c17.946,17.945 29.055,35.036 38.369,58.963c7.018,18.052 15.382,45.184 17.657,95.174c2.457,54.05 2.991,70.286 2.991,207.119c-0,136.834 -0.534,153.07 -2.991,207.12c-2.286,49.99 -10.639,77.122 -17.657,95.174c-9.293,23.927 -20.423,40.964 -38.369,58.899c-17.945,17.946 -34.982,29.055 -58.92,38.348c-18.052,7.05 -45.205,15.381 -95.196,17.667c-54.05,2.457 -70.286,2.991 -207.183,2.991c-136.908,0 -153.134,-0.534 -207.184,-2.991c-49.99,-2.307 -77.122,-10.66 -95.206,-17.678c-23.927,-9.293 -41.018,-20.402 -58.963,-38.348c-17.946,-17.945 -29.055,-34.993 -38.369,-58.931c-7.018,-18.052 -15.382,-45.184 -17.657,-95.174c-2.457,-54.05 -2.948,-70.286 -2.948,-207.205c-0,-136.918 0.491,-153.069 2.948,-207.119c2.286,-49.991 10.639,-77.122 17.657,-95.196c9.293,-23.927 20.423,-41.018 38.369,-58.963c17.945,-17.945 35.036,-29.054 58.963,-38.369c18.073,-7.05 45.216,-15.382 95.206,-17.678c47.299,-2.137 65.629,-2.777 161.188,-2.884l0,0.128Zm319.684,85.134c-33.753,-0 -61.527,27.774 -61.527,61.526c-0,33.753 27.774,61.527 61.527,61.527c33.752,0 61.526,-27.774 61.526,-61.527c0,-0.007 0,-0.014 0,-0.021c0,-33.968 -27.558,-61.527 -61.526,-61.527l-0,0.022Zm-273.688,71.888c-145.411,-0 -263.306,117.894 -263.306,263.305c0,145.411 117.895,263.252 263.306,263.252c145.41,-0 263.273,-117.841 263.273,-263.252c-0,-145.411 -117.873,-263.305 -263.284,-263.305l0.011,-0Zm-0,92.397c94.384,-0 170.908,76.513 170.908,170.908c-0,94.384 -76.524,170.908 -170.908,170.908c-94.395,-0 -170.908,-76.524 -170.908,-170.908c-0,-94.395 76.513,-170.908 170.908,-170.908Z" style="fill:#fff;fill-rule:nonzero;"/></g></g><defs><radialGradient id="_Radial2" cx="0" cy="0" r="1" gradientUnits="userSpaceOnUse" gradientTransform="matrix(0,-1376.12,1280.25,0,141.362,-571.302)"><stop offset="0" style="stop-color:#fd5;stop-opacity:1"/><stop offset="0.1" style="stop-color:#fd5;stop-opacity:1"/><stop offset="0.5" style="stop-color:#ff543e;stop-opacity:1"/><stop offset="1" style="stop-color:#c837ab;stop-opacity:1"/></radialGradient><radialGradient id="_Radial3" cx="0" cy="0" r="1" gradientUnits="userSpaceOnUse" gradientTransform="matrix(120.769,603.164,-2486.89,497.948,-2192.7,755.581)"><stop offset="0" style="stop-color:#3771c8;stop-opacity:1"/><stop offset="0.13" style="stop-color:#3771c8;stop-opacity:1"/><stop offset="1" style="stop-color:#60f;stop-opacity:0"/></radialGradient></defs></svg>